<svg width="20" height="50" viewBox="0 0 20 50" fill="none" xmlns="http://www.w3.org/2000/svg">
<path d="M11 1V0.5H10V1H11ZM10.5 49L10.1292 49.3355C10.2272 49.4438 10.3677 49.5038 10.5137 49.4998C10.6597 49.4958 10.7967 49.4281 10.8886 49.3146L10.5 49ZM19.3886 38.8146L19.7032 38.426L18.926 37.7968L18.6114 38.1854L19.3886 38.8146ZM1.37077 38.1645L1.03531 37.7938L0.293775 38.4647L0.629232 38.8355L1.37077 38.1645ZM10 1V49H11V1H10ZM18.6114 38.1854L10.1114 48.6854L10.8886 49.3146L19.3886 38.8146L18.6114 38.1854ZM10.8708 48.6645L1.37077 38.1645L0.629232 38.8355L10.1292 49.3355L10.8708 48.6645Z" fill="#D59B78"/>
</svg>
