<svg width="53" height="93" viewBox="0 0 53 93" fill="none" xmlns="http://www.w3.org/2000/svg">
<path d="M33.6515 58.2822C34.5987 60.6881 35.9437 61.9289 37.6865 62.0046V63.1697C36.0952 63.056 34.0114 62.9992 31.4351 62.9992C28.12 62.9992 25.6383 63.056 23.9902 63.1697V62.0046C25.4678 61.9478 26.5192 61.7678 27.1444 61.4647C27.7884 61.1617 28.1105 60.6218 28.1105 59.8451C28.1105 59.182 27.8832 58.2727 27.4285 57.1172L23.8482 47.5696H9.81092L7.42402 53.7357C6.64733 55.7059 6.25898 57.2971 6.25898 58.5095C6.25898 59.7409 6.66627 60.6218 7.48085 61.1522C8.31437 61.6826 9.59306 61.9668 11.3169 62.0046V63.1697C9.10053 63.056 6.86518 62.9992 4.61088 62.9992C2.86807 62.9992 1.41888 63.056 0.263316 63.1697V62.0046C2.19557 61.5689 3.72053 59.883 4.83821 56.9467L18.5345 21.6831H19.4722L33.6515 58.2822ZM16.9148 29.0427L10.2371 46.4045H23.4219L16.9148 29.0427Z" fill="#D59B78"/>
<path d="M46.4552 77.7185C46.3605 76.5061 46.1995 75.6347 45.9722 75.1043C45.7638 74.5549 45.4512 74.2802 45.0345 74.2802C44.7314 74.2802 44.3336 74.4413 43.841 74.7633C42.6855 75.5779 41.6151 76.2504 40.6301 76.7808C39.6639 77.2923 38.5557 77.709 37.3055 78.0311C36.0552 78.3721 34.6439 78.5426 33.0716 78.5426C29.3775 78.5426 26.1382 77.709 23.3535 76.042C20.5877 74.375 18.4376 71.9596 16.9031 68.796C15.3877 65.6135 14.6299 61.8343 14.6299 57.4583C14.6299 53.177 15.4161 49.3883 16.9884 46.0921C18.5607 42.7959 20.7487 40.2385 23.5524 38.4199C26.356 36.6013 29.548 35.692 33.1284 35.692C35.4395 35.692 37.4096 36.0235 39.0388 36.6866C40.6869 37.3496 42.2876 38.2778 43.841 39.4713C44.2578 39.8123 44.6367 39.9828 44.9776 39.9828C45.7733 39.9828 46.2658 38.8272 46.4552 36.5161H47.7908C47.6392 39.0356 47.5634 43.4968 47.5634 49.8998H46.2279C45.9438 48.1569 45.6786 46.8025 45.4323 45.8363C45.205 44.8702 44.9303 44.0556 44.6082 43.3926C44.2862 42.7106 43.8505 42.0097 43.3011 41.2899C42.1266 39.7744 40.6395 38.6378 38.8399 37.88C37.0402 37.1223 35.0985 36.7434 33.0147 36.7434C30.4952 36.7434 28.2883 37.5769 26.3939 39.2439C24.4995 40.911 23.0314 43.2884 21.9895 46.3762C20.9476 49.464 20.4267 53.0823 20.4267 57.2309C20.4267 61.4554 20.995 65.0831 22.1316 68.1141C23.2682 71.1451 24.8311 73.4467 26.8201 75.019C28.8092 76.5914 31.0635 77.3775 33.583 77.3775C35.5153 77.3775 37.4002 77.0081 39.2377 76.2693C41.0752 75.5305 42.5055 74.4223 43.5284 72.9447C44.3241 71.8839 44.8924 70.7378 45.2334 69.5064C45.5744 68.2562 45.9059 66.3334 46.2279 63.7381H47.5634C47.5634 70.4252 47.6392 75.0853 47.7908 77.7185H46.4552Z" fill="#D59B78"/>
</svg>
