<svg width="41" height="70" viewBox="0 0 41 70" fill="none" xmlns="http://www.w3.org/2000/svg">
<path d="M26.1262 44.287C26.8458 46.1147 27.8676 47.0574 29.1916 47.1149V48C27.9827 47.9137 26.3996 47.8705 24.4424 47.8705C21.9239 47.8705 20.0386 47.9137 18.7866 48V47.1149C19.9091 47.0718 20.7078 46.935 21.1827 46.7048C21.672 46.4745 21.9167 46.0643 21.9167 45.4743C21.9167 44.9706 21.744 44.2798 21.3986 43.4019L18.6786 36.1486H8.01455L6.20123 40.8331C5.61118 42.3298 5.31615 43.5386 5.31615 44.4597C5.31615 45.3951 5.62557 46.0643 6.2444 46.4673C6.87762 46.8703 7.84905 47.0861 9.15867 47.1149V48C7.47487 47.9137 5.77668 47.8705 4.06409 47.8705C2.74008 47.8705 1.63913 47.9137 0.761256 48V47.1149C2.22918 46.7839 3.3877 45.5031 4.23679 43.2724L14.6418 16.4827H15.3542L26.1262 44.287ZM13.4113 22.0738L8.33836 35.2636H18.3548L13.4113 22.0738Z" fill="#D59B78"/>
<path d="M35.8538 59.0525C35.7818 58.1314 35.6595 57.4694 35.4868 57.0665C35.3285 56.6491 35.091 56.4404 34.7744 56.4404C34.5442 56.4404 34.2419 56.5628 33.8678 56.8074C32.9899 57.4263 32.1768 57.9372 31.4284 58.3401C30.6944 58.7287 29.8525 59.0453 28.9027 59.2899C27.9529 59.549 26.8807 59.6785 25.6862 59.6785C22.8799 59.6785 20.419 59.0453 18.3034 57.7788C16.2023 56.5124 14.5688 54.6775 13.4031 52.2741C12.2518 49.8564 11.6761 46.9853 11.6761 43.6608C11.6761 40.4084 12.2734 37.5301 13.4679 35.026C14.6624 32.5218 16.3246 30.579 18.4545 29.1974C20.5845 27.8158 23.0094 27.125 25.7294 27.125C27.4852 27.125 28.9819 27.3769 30.2195 27.8806C31.4716 28.3843 32.6877 29.0895 33.8678 29.9961C34.1844 30.2552 34.4722 30.3847 34.7313 30.3847C35.3357 30.3847 35.7099 29.5068 35.8538 27.7511H36.8684C36.7533 29.6651 36.6957 33.0543 36.6957 37.9186H35.6811C35.4652 36.5946 35.2637 35.5656 35.0766 34.8317C34.9039 34.0977 34.6953 33.4789 34.4506 32.9752C34.206 32.4571 33.875 31.9246 33.4576 31.3777C32.5653 30.2264 31.4356 29.3629 30.0684 28.7873C28.7012 28.2116 27.2261 27.9238 25.643 27.9238C23.729 27.9238 22.0524 28.557 20.6132 29.8234C19.1741 31.0899 18.0588 32.896 17.2672 35.2418C16.4757 37.5876 16.0799 40.3364 16.0799 43.4881C16.0799 46.6974 16.5117 49.4534 17.3752 51.756C18.2386 54.0587 19.4259 55.8072 20.937 57.0017C22.4481 58.1962 24.1607 58.7934 26.0748 58.7934C27.5427 58.7934 28.9747 58.5128 30.3706 57.9515C31.7666 57.3903 32.8532 56.5484 33.6303 55.4258C34.2347 54.6199 34.6665 53.7492 34.9255 52.8138C35.1846 51.864 35.4364 50.4032 35.6811 48.4316H36.6957C36.6957 53.5118 36.7533 57.0521 36.8684 59.0525H35.8538Z" fill="#D59B78"/>
</svg>
