<svg width="40" height="69" viewBox="0 0 40 69" fill="none" xmlns="http://www.w3.org/2000/svg">
<path d="M26.8174 55.6064C26.8174 58.3994 27.2194 60.5576 28.0234 62.0811C28.8698 63.6045 30.1816 64.6836 31.959 65.3184C33.7786 65.9531 36.2331 66.2705 39.3223 66.2705V69C29.8431 68.6615 23.8551 68.4922 21.3584 68.4922C18.6924 68.4922 12.0273 68.6615 1.36328 69V66.2705C5.97591 66.2705 9.4248 65.5088 11.71 63.9854C13.9951 62.4196 15.1377 59.6266 15.1377 55.6064V24.1221C15.1377 19.9326 14.6934 16.8646 13.8047 14.918C12.9583 12.9714 11.4984 11.6807 9.4248 11.0459C7.39355 10.4111 4.26204 10.0938 0.0302734 10.0938V7.2373C6.37793 7.11035 11.6042 6.56022 15.709 5.58691C19.8561 4.57129 23.5589 2.9209 26.8174 0.635742V55.6064Z" fill="#333333"/>
</svg>
