<svg width="114" height="71" viewBox="0 0 114 71" fill="none" xmlns="http://www.w3.org/2000/svg">
<path d="M26.8174 55.6064C26.8174 58.3994 27.2194 60.5576 28.0234 62.0811C28.8698 63.6045 30.1816 64.6836 31.959 65.3184C33.7786 65.9531 36.2331 66.2705 39.3223 66.2705V69C29.8431 68.6615 23.8551 68.4922 21.3584 68.4922C18.6924 68.4922 12.0273 68.6615 1.36328 69V66.2705C5.97591 66.2705 9.4248 65.5088 11.71 63.9854C13.9951 62.4196 15.1377 59.6266 15.1377 55.6064V24.1221C15.1377 19.9326 14.6934 16.8646 13.8047 14.918C12.9583 12.9714 11.4984 11.6807 9.4248 11.0459C7.39355 10.4111 4.26204 10.0938 0.0302734 10.0938V7.2373C6.37793 7.11035 11.6042 6.56022 15.709 5.58691C19.8561 4.57129 23.5589 2.9209 26.8174 0.635742V55.6064ZM81.7246 0.254883C87.776 0.254883 93.1715 1.67253 97.9111 4.50781C102.693 7.3431 106.417 11.3421 109.083 16.5049C111.791 21.6676 113.146 27.6344 113.146 34.4053C113.146 41.3031 111.749 47.5238 108.956 53.0674C106.205 58.611 102.333 62.9697 97.3398 66.1436C92.3887 69.2751 86.6969 70.8408 80.2646 70.8408C74.2555 70.8408 68.86 69.4232 64.0781 66.5879C59.2962 63.7526 55.5511 59.7536 52.8428 54.5908C50.1344 49.3857 48.7803 43.3555 48.7803 36.5C48.7803 29.6445 50.1344 23.4661 52.8428 17.9648C55.5934 12.4635 59.4655 8.14714 64.459 5.01562C69.4525 1.8418 75.2077 0.254883 81.7246 0.254883ZM80.5186 2.54004C76.7946 2.54004 73.4727 3.87305 70.5527 6.53906C67.6751 9.20508 65.4323 13.0771 63.8242 18.1553C62.2161 23.1911 61.4121 29.179 61.4121 36.1191C61.4121 43.5671 62.3008 49.7243 64.0781 54.5908C65.8555 59.415 68.2464 62.9486 71.251 65.1914C74.2979 67.3919 77.7044 68.4922 81.4707 68.4922C85.1947 68.4922 88.4954 67.1592 91.373 64.4932C94.293 61.7848 96.557 57.8916 98.165 52.8135C99.7731 47.7354 100.577 41.7262 100.577 34.7861C100.577 27.3805 99.6885 21.2656 97.9111 16.4414C96.1338 11.6172 93.7217 8.10482 90.6748 5.9043C87.6702 3.66146 84.2848 2.54004 80.5186 2.54004Z" fill="#333333"/>
</svg>
