<svg width="44" height="94" viewBox="0 0 44 94" fill="none" xmlns="http://www.w3.org/2000/svg">
<path d="M38.42 0.55C38.42 9.39 38.5933 15.7167 38.94 19.53C37.12 19.0967 31.0967 18.88 20.87 18.88H7.09L5.53 43.97C7.95667 42.7567 10.2967 41.8033 12.55 41.11C14.8033 40.4167 17.5333 40.07 20.74 40.07C28.28 40.07 34 41.9333 37.9 45.66C41.8 49.3 43.75 54.11 43.75 60.09C43.75 66.5033 41.6267 72.2233 37.38 77.25C33.22 82.3633 27.8033 86.3067 21.13 89.08C14.5433 91.8533 7.78333 93.24 0.85 93.24V90.9C6.13667 90.8133 11.0767 89.6433 15.67 87.39C20.35 85.1367 24.12 81.8 26.98 77.38C29.9267 72.96 31.4 67.63 31.4 61.39C31.4 55.93 29.97 51.6833 27.11 48.65C24.25 45.53 20.22 43.97 15.02 43.97C12.94 43.97 11.1633 44.1433 9.69 44.49C8.21667 44.8367 6.44 45.4 4.36 46.18L3.06 45.4L5.53 6.66C7.26333 7.00667 9.60333 7.18 12.55 7.18H27.24C29.58 7.18 31.3133 7.00667 32.44 6.66C33.6533 6.22667 34.4767 5.57666 34.91 4.70999C35.3433 3.75666 35.69 2.37 35.95 0.55H38.42Z" fill="#333333"/>
</svg>
