<svg width="44" height="45" viewBox="0 0 44 45" fill="none" xmlns="http://www.w3.org/2000/svg">
<path fill-rule="evenodd" clip-rule="evenodd" d="M15.9268 38.9912C6.71766 36.6485 0.160156 28.8662 0.160156 19.8529C0.160156 8.8875 9.78499 0 21.6602 0C33.5353 0 43.1602 8.8875 43.1602 19.8529C43.1602 28.8662 36.6027 36.6485 27.3935 38.9912V39.7059H34.5602C37.2477 39.7059 38.8602 41.6978 38.8602 43.6765C38.8602 44.4044 38.2152 45 37.4268 45C36.6385 45 35.9935 44.4044 35.9935 43.6765C35.9935 43.0213 35.4488 42.3529 34.5602 42.3529H25.9602C25.1718 42.3529 24.5268 41.7574 24.5268 41.0294V34.3853C24.2903 34.4051 24.0467 34.4118 23.803 34.4118H19.5173C19.2737 34.4118 19.0372 34.4051 18.7935 34.3853V41.0294C18.7935 41.7574 18.1485 42.3529 17.3602 42.3529H8.76016C7.64932 42.3529 7.32682 42.6971 7.32682 43.6765C7.32682 44.4044 6.68182 45 5.89349 45C5.10516 45 4.46016 44.4044 4.46016 43.6765C4.46016 41.314 5.96516 39.7059 8.76016 39.7059H15.9268V38.9912ZM15.9268 33.8029C12.1572 32.4662 9.47682 29.0978 9.47682 25.1537V11.9647C9.47682 11.389 9.88532 10.8728 10.4802 10.7007C12.5872 10.0919 14.4863 8.98676 15.9985 7.50441C16.5933 6.92206 17.5967 6.95515 18.1485 7.57059C20.5852 10.3037 24.2043 11.9118 28.1102 11.9118C29.436 11.9118 30.7403 11.7265 31.9802 11.3691C32.9047 11.1044 33.8435 11.7397 33.8435 12.6331V25.1537C33.8435 29.1044 31.1703 32.4728 27.3935 33.8029V36.2316C34.9687 33.975 40.2935 27.4169 40.2935 19.8529C40.2935 10.35 31.9515 2.64706 21.6602 2.64706C11.3688 2.64706 3.02682 10.35 3.02682 19.8529C3.02682 27.4169 8.35166 33.975 15.9268 36.2316V33.8029ZM12.3435 25.1537C12.3435 28.8 15.5542 31.7647 19.5173 31.7647H23.803C27.7733 31.7647 30.9768 28.8066 30.9768 25.1537V14.3206C30.038 14.4794 29.0777 14.5588 28.1102 14.5588C23.8675 14.5588 19.8972 12.9971 16.9732 10.3103C15.6043 11.4154 14.0348 12.2956 12.3435 12.9044V25.1537ZM17.3602 22.5C16.1705 22.5 15.2102 21.6132 15.2102 20.5147C15.2102 19.4162 16.1705 18.5294 17.3602 18.5294C18.5498 18.5294 19.5102 19.4162 19.5102 20.5147C19.5102 21.6132 18.5498 22.5 17.3602 22.5ZM25.9602 22.5C24.7705 22.5 23.8102 21.6132 23.8102 20.5147C23.8102 19.4162 24.7705 18.5294 25.9602 18.5294C27.1498 18.5294 28.1102 19.4162 28.1102 20.5147C28.1102 21.6132 27.1498 22.5 25.9602 22.5Z" fill="#D59B78"/>
</svg>
