<svg width="43" height="45" viewBox="0 0 43 45" fill="none" xmlns="http://www.w3.org/2000/svg">
<path d="M34.228 10.5882H38.7C39.4883 10.5882 40.1333 11.1838 40.1333 11.9118C40.1333 12.6397 39.4883 13.2353 38.7 13.2353H34.4V14.5588C34.4 21.1368 28.6237 26.4706 21.5 26.4706C14.3763 26.4706 8.6 21.1368 8.6 14.5588V13.2353H4.3C3.51167 13.2353 2.86667 12.6397 2.86667 11.9118C2.86667 11.1838 3.51167 10.5882 4.3 10.5882H8.772C9.10883 9.05956 9.90433 7.00147 10.8933 5.14853C12.5847 1.98529 14.3978 0 16.4833 0C18.232 0 19.092 0.5625 20.1383 1.85294C20.7045 2.54779 20.855 2.64706 21.5 2.64706C22.145 2.64706 22.2955 2.54779 22.8617 1.85294C23.908 0.5625 24.768 0 26.5167 0C28.6022 0 30.4153 1.98529 32.0995 5.14853C33.0885 7.00147 33.8912 9.05956 34.228 10.5882ZM11.4667 13.2353V14.5588C11.4667 19.6743 15.9602 23.8235 21.5 23.8235C27.0398 23.8235 31.5333 19.6743 31.5333 14.5588V13.2353H11.4667ZM29.5338 6.31985C28.337 4.07647 27.0327 2.64706 26.5167 2.64706C25.8717 2.64706 25.7212 2.74632 25.155 3.44118C24.1087 4.73162 23.2487 5.29412 21.5 5.29412C19.7513 5.29412 18.8913 4.73162 17.845 3.44118C17.2788 2.74632 17.1283 2.64706 16.4833 2.64706C15.9673 2.64706 14.663 4.07647 13.4662 6.31985C12.6922 7.77574 12.04 9.40368 11.7103 10.5882H31.2897C30.9528 9.39706 30.3078 7.77574 29.5338 6.31985ZM1.43333 45C0.645 45 0 44.4044 0 43.6765V37.0588C0 32.6713 3.84133 29.1176 8.59283 29.1176H34.4072C39.1515 29.1176 43 32.6713 43 37.0588V43.6765C43 44.4044 42.355 45 41.5667 45H1.43333ZM22.9333 42.3529H40.1333V37.0588C40.1333 34.1338 37.5677 31.7647 34.4072 31.7647H22.9333V42.3529ZM8.59283 31.7647C5.42517 31.7647 2.86667 34.1338 2.86667 37.0588V42.3529H20.0667V31.7647H8.59283Z" fill="#D59B78"/>
</svg>
