<svg width="49" height="45" viewBox="0 0 49 45" fill="none" xmlns="http://www.w3.org/2000/svg">
<path d="M29.8609 27.3214L33.0797 16.3286C33.3973 15.2518 34.3503 14.4643 35.3385 14.4643H38.1761C39.1714 14.4643 40.1244 15.2598 40.435 16.3286L43.6538 27.3214H47.3456C48.122 27.3214 48.7573 28.0446 48.7573 28.9286C48.7573 29.8125 48.122 30.5357 47.3456 30.5357H43.5056L42.362 35.7509C42.2067 36.4661 41.642 36.9643 40.9926 36.9643H33.2279V43.3929C33.2279 44.2768 32.5926 45 31.8161 45C31.0397 45 30.4044 44.2768 30.4044 43.3929V35.3571C30.4044 34.4732 31.0397 33.75 31.8161 33.75H39.8914L40.5973 30.5357H26.1691V43.3929C26.1691 44.2768 25.5338 45 24.7573 45C23.9809 45 23.3456 44.2768 23.3456 43.3929V30.5357H8.91732L9.62321 33.75H17.6985C18.475 33.75 19.1103 34.4732 19.1103 35.3571V43.3929C19.1103 44.2768 18.475 45 17.6985 45C16.922 45 16.2867 44.2768 16.2867 43.3929V36.9643H8.52203C7.87262 36.9643 7.30791 36.4661 7.15262 35.7509L6.00909 30.5357H2.16909C1.39262 30.5357 0.757324 29.8125 0.757324 28.9286C0.757324 28.0446 1.39262 27.3214 2.16909 27.3214H5.6985V20.8929C5.6985 17.3411 8.22556 14.4643 11.3456 14.4643H14.1691C17.2891 14.4643 19.8161 17.3411 19.8161 20.8929V27.3214H29.8609ZM40.682 27.3214L37.8585 17.6786H35.6561L32.8326 27.3214H40.682ZM8.52203 27.3214H16.9926V20.8929C16.9926 19.1089 15.7291 17.6786 14.1691 17.6786H11.3456C9.7785 17.6786 8.52203 19.117 8.52203 20.8929V27.3214ZM12.7573 11.25C10.0256 11.25 7.81615 8.73482 7.81615 5.625C7.81615 2.51518 10.0256 0 12.7573 0C15.4891 0 17.6985 2.51518 17.6985 5.625C17.6985 8.73482 15.4891 11.25 12.7573 11.25ZM12.7573 8.03571C13.9291 8.03571 14.875 6.95893 14.875 5.625C14.875 4.29107 13.9291 3.21429 12.7573 3.21429C11.5856 3.21429 10.6397 4.29107 10.6397 5.625C10.6397 6.95893 11.5856 8.03571 12.7573 8.03571ZM36.7573 11.25C34.0256 11.25 31.8161 8.73482 31.8161 5.625C31.8161 2.51518 34.0256 0 36.7573 0C39.4891 0 41.6985 2.51518 41.6985 5.625C41.6985 8.73482 39.4891 11.25 36.7573 11.25ZM36.7573 8.03571C37.9291 8.03571 38.875 6.95893 38.875 5.625C38.875 4.29107 37.9291 3.21429 36.7573 3.21429C35.5856 3.21429 34.6397 4.29107 34.6397 5.625C34.6397 6.95893 35.5856 8.03571 36.7573 8.03571Z" fill="#D59B78"/>
</svg>
