<svg width="38" height="46" viewBox="0 0 38 46" fill="none" xmlns="http://www.w3.org/2000/svg">
<path fill-rule="evenodd" clip-rule="evenodd" d="M19.8669 0H22.7682C24.3204 0 25.5825 1.11889 25.6623 2.52417C32.8575 4.29575 38.0001 10.3165 38.0001 17.3162C38.0001 20.6729 37.1297 23.3503 35.3164 26.8002C32.901 31.4023 32.9228 31.349 32.9228 32.6344C32.9228 34.2528 33.1767 35.7513 33.5901 37.0967C33.7352 37.5629 33.8875 37.9691 34.0398 38.3221C34.1269 38.5219 34.1921 38.6485 34.2139 38.7018C34.5983 39.4011 34.2357 40.2536 33.445 40.5399L20.3891 45.202C19.6638 45.4617 18.8514 45.1487 18.5395 44.5027L16.0226 39.2945H11.1629C7.15186 39.2945 3.90964 36.3174 3.90964 32.6278V29.3044H2.45898C0.63115 29.3044 -0.478604 27.7992 0.203206 26.2407L3.91689 17.7225V17.3162C3.91689 10.0634 9.45115 3.88283 16.9946 2.35767C17.1469 1.03231 18.3727 0 19.8669 0ZM25.6695 5.30143V14.6522C27.4321 15.8643 28.5708 17.8024 28.5708 19.9803C28.5708 23.6566 25.3214 26.6403 21.3175 26.6403C17.3137 26.6403 14.0642 23.6566 14.0642 19.9803C14.0642 17.8024 15.203 15.8643 16.9656 14.6522V5.10162C11.0686 6.5735 6.81096 11.5286 6.81096 17.3096V17.9756C6.81096 18.1421 6.77469 18.3152 6.70941 18.4684L3.1553 26.6403H5.36755C6.16541 26.6403 6.81821 27.2397 6.81821 27.9724V32.6278C6.81821 34.8389 8.76209 36.6305 11.1702 36.6305H16.9728C17.5458 36.6305 18.0681 36.9435 18.3002 37.423L20.643 42.2582L31.0515 38.5419C30.9717 38.3221 30.8919 38.089 30.8121 37.8359C30.3261 36.2642 30.0287 34.5192 30.0287 32.6411C30.0287 31.5155 30.3334 30.4033 30.9354 29.0779C31.1603 28.5784 31.4214 28.0656 31.784 27.3796C31.8348 27.2864 32.5094 26.0276 32.7125 25.648C34.3517 22.5244 35.106 20.2067 35.106 17.3162C35.0988 11.7817 31.2038 6.98643 25.6695 5.30143ZM22.7682 13.4534C22.7682 9.93685 22.7682 2.66403 22.7682 2.66403H19.8669V13.4534C20.3383 13.3668 20.8243 13.3202 21.3175 13.3202C21.818 13.3202 22.304 13.3668 22.7682 13.4534ZM21.3175 23.9763C23.7184 23.9763 25.6695 22.1847 25.6695 19.9803C25.6695 17.7758 23.7184 15.9842 21.3175 15.9842C18.9167 15.9842 16.9656 17.7758 16.9656 19.9803C16.9656 22.1847 18.9167 23.9763 21.3175 23.9763Z" fill="#D59B78"/>
</svg>
